<svg width="4" height="15" viewBox="0 0 4 15" fill="none" xmlns="http://www.w3.org/2000/svg">
<path d="M1.66671 13.3346V13.3263M1.66671 7.5013V7.49297M1.66671 1.66797V1.65964M1.66671 12.5013C2.12694 12.5013 2.50004 12.8744 2.50004 13.3346C2.50004 13.7949 2.12694 14.168 1.66671 14.168C1.20647 14.168 0.833374 13.7949 0.833374 13.3346C0.833374 12.8744 1.20647 12.5013 1.66671 12.5013ZM1.66671 6.66797C2.12694 6.66797 2.50004 7.04106 2.50004 7.5013C2.50004 7.96154 2.12694 8.33464 1.66671 8.33464C1.20647 8.33464 0.833374 7.96154 0.833374 7.5013C0.833374 7.04106 1.20647 6.66797 1.66671 6.66797ZM1.66671 0.834636C2.12694 0.834636 2.50004 1.20773 2.50004 1.66797C2.50004 2.12821 2.12694 2.5013 1.66671 2.5013C1.20647 2.5013 0.833374 2.12821 0.833374 1.66797C0.833374 1.20773 1.20647 0.834636 1.66671 0.834636Z" stroke="#666666" stroke-width="1.66667" stroke-linecap="round" stroke-linejoin="round"/>
</svg>
