<svg width="9" height="16" viewBox="0 0 9 16" fill="none" xmlns="http://www.w3.org/2000/svg">
<path d="M8.36755 7.66797C8.3681 7.98121 8.30673 8.29146 8.18698 8.58091C8.06723 8.87035 7.89146 9.13327 7.66977 9.35457L1.92086 15.1024C1.60843 15.4148 1.10194 15.4147 0.789544 15.1023L0.234265 14.5471C-0.0781549 14.2346 -0.0781547 13.7281 0.234265 13.4157L5.4163 8.23366C5.72872 7.92124 5.72872 7.4147 5.4163 7.10228L0.234265 1.92025C-0.0781547 1.60783 -0.0781549 1.1013 0.234264 0.788883L0.78949 0.233657C1.10191 -0.078763 1.60844 -0.078763 1.92086 0.233657L7.66858 5.98137C7.89049 6.20257 8.06648 6.46545 8.18643 6.7549C8.30639 7.04434 8.36794 7.35465 8.36755 7.66797Z" fill="#666666"/>
</svg>
