<svg width="14" height="14" viewBox="0 0 14 14" fill="none" xmlns="http://www.w3.org/2000/svg">
<path d="M10.5556 1.11111H10V0.555556C10 0.408213 9.94147 0.266905 9.83728 0.162718C9.73309 0.0585316 9.59179 0 9.44444 0C9.2971 0 9.15579 0.0585316 9.05161 0.162718C8.94742 0.266905 8.88889 0.408213 8.88889 0.555556V1.11111H4.44444V0.555556C4.44444 0.408213 4.38591 0.266905 4.28173 0.162718C4.17754 0.0585316 4.03623 0 3.88889 0C3.74155 0 3.60024 0.0585316 3.49605 0.162718C3.39186 0.266905 3.33333 0.408213 3.33333 0.555556V1.11111H2.77778C1.24611 1.11111 0 2.35722 0 3.88889V10.5556C0 12.0872 1.24611 13.3333 2.77778 13.3333H10.5556C12.0872 13.3333 13.3333 12.0872 13.3333 10.5556V3.88889C13.3333 2.35722 12.0872 1.11111 10.5556 1.11111ZM2.77778 2.22222H10.5556C11.4744 2.22222 12.2222 2.97 12.2222 3.88889V4.44444H1.11111V3.88889C1.11111 2.97 1.85889 2.22222 2.77778 2.22222ZM10.5556 12.2222H2.77778C1.85889 12.2222 1.11111 11.4744 1.11111 10.5556V5.55556H12.2222V10.5556C12.2222 11.4744 11.4744 12.2222 10.5556 12.2222ZM10.5556 7.77778C10.5556 7.92512 10.497 8.06643 10.3928 8.17061C10.2887 8.2748 10.1473 8.33333 10 8.33333H3.33333C3.18599 8.33333 3.04468 8.2748 2.9405 8.17061C2.83631 8.06643 2.77778 7.92512 2.77778 7.77778C2.77778 7.63043 2.83631 7.48913 2.9405 7.38494C3.04468 7.28075 3.18599 7.22222 3.33333 7.22222H10C10.1473 7.22222 10.2887 7.28075 10.3928 7.38494C10.497 7.48913 10.5556 7.63043 10.5556 7.77778ZM6.66667 10C6.66667 10.1473 6.60813 10.2887 6.50395 10.3928C6.39976 10.497 6.25845 10.5556 6.11111 10.5556H3.33333C3.18599 10.5556 3.04468 10.497 2.9405 10.3928C2.83631 10.2887 2.77778 10.1473 2.77778 10C2.77778 9.85266 2.83631 9.71135 2.9405 9.60716C3.04468 9.50298 3.18599 9.44444 3.33333 9.44444H6.11111C6.25845 9.44444 6.39976 9.50298 6.50395 9.60716C6.60813 9.71135 6.66667 9.85266 6.66667 10Z" fill="#666666"/>
</svg>
