<svg width="18" height="9" viewBox="0 0 18 9" fill="none" xmlns="http://www.w3.org/2000/svg">
<path d="M11.912 0.257834C11.5757 -0.082172 11.0278 -0.086461 10.6863 0.248278L4.28021 6.57968L1.49541 3.69672C1.16326 3.35055 0.613393 3.33918 0.267254 3.67133C-0.078922 4.00347 -0.0902844 4.55334 0.241858 4.89948L0.246336 4.90411L3.64181 8.42291C3.72225 8.50499 3.81819 8.57028 3.92405 8.61501C4.02992 8.65974 4.14361 8.68302 4.25854 8.68349H4.26809C4.49584 8.68278 4.7142 8.59263 4.87613 8.43247L11.9041 1.48347C12.2437 1.14673 12.2472 0.598894 11.912 0.257834ZM8.85353 8.42291C8.93377 8.50478 9.02943 8.56995 9.13498 8.61467C9.24053 8.6594 9.35389 8.68279 9.46853 8.68349H9.47808C9.70584 8.68278 9.92419 8.59263 10.0861 8.43247L17.1142 1.48347C17.4327 1.12476 17.4002 0.575755 17.0415 0.257195C16.7163 -0.0316055 16.2277 -0.0354055 15.8981 0.248278L9.49456 6.57968L9.26611 6.34254C8.93401 5.99636 8.38413 5.98496 8.03796 6.31711C7.69178 6.64921 7.68038 7.19908 8.01252 7.54526L8.01704 7.54993L8.85353 8.42291Z" fill="#C67C4E"/>
</svg>
