<svg width="14" height="14" viewBox="0 0 14 14" fill="none" xmlns="http://www.w3.org/2000/svg">
<path d="M6.66667 0C5.34813 0 4.05919 0.390993 2.96287 1.12354C1.86654 1.85608 1.01206 2.89727 0.507473 4.11544C0.00288857 5.33362 -0.129134 6.67406 0.128101 7.96727C0.385336 9.26047 1.02027 10.4484 1.95262 11.3807C2.88497 12.3131 4.07286 12.948 5.36607 13.2052C6.65927 13.4625 7.99972 13.3304 9.21789 12.8259C10.4361 12.3213 11.4773 11.4668 12.2098 10.3705C12.9423 9.27414 13.3333 7.98521 13.3333 6.66667C13.3314 4.89914 12.6284 3.20456 11.3786 1.95473C10.1288 0.704904 8.43419 0.00191171 6.66667 0ZM6.66667 12.2222C5.56788 12.2222 4.49377 11.8964 3.58017 11.2859C2.66656 10.6755 1.95449 9.80783 1.53401 8.79268C1.11352 7.77754 1.0035 6.6605 1.21786 5.58283C1.43222 4.50516 1.96134 3.51525 2.7383 2.73829C3.51526 1.96134 4.50516 1.43222 5.58283 1.21786C6.6605 1.0035 7.77754 1.11352 8.79269 1.534C9.80783 1.95449 10.6755 2.66656 11.2859 3.58016C11.8964 4.49377 12.2222 5.56788 12.2222 6.66667C12.2206 8.13959 11.6348 9.55173 10.5933 10.5932C9.55173 11.6348 8.1396 12.2206 6.66667 12.2222Z" fill="#C67C4E"/>
<path d="M6.66663 3.33203C6.51929 3.33203 6.37798 3.39056 6.27379 3.49475C6.16961 3.59894 6.11107 3.74024 6.11107 3.88759V6.29036L4.2383 7.4637C4.11306 7.54194 4.02402 7.66672 3.99079 7.8106C3.95755 7.95449 3.98284 8.10568 4.06107 8.23092C4.13931 8.35616 4.2641 8.44519 4.40798 8.47843C4.55186 8.51166 4.70306 8.48638 4.8283 8.40814L6.96163 7.07481C7.04223 7.02431 7.10852 6.95396 7.15414 6.87049C7.19976 6.78703 7.22319 6.69325 7.22218 6.59814V3.88759C7.22218 3.74024 7.16365 3.59894 7.05947 3.49475C6.95528 3.39056 6.81397 3.33203 6.66663 3.33203Z" fill="#C67C4E"/>
</svg>
