<svg width="24" height="24" viewBox="0 0 24 24" fill="none" xmlns="http://www.w3.org/2000/svg">
<path d="M19.2005 5.59844H16.7205C16.5348 4.69557 16.0435 3.88431 15.3295 3.30141C14.6154 2.71851 13.7223 2.3996 12.8005 2.39844L11.2005 2.39844C10.2787 2.3996 9.38554 2.71851 8.67149 3.30141C7.95743 3.88431 7.46617 4.69557 7.28049 5.59844H4.80049C4.58832 5.59844 4.38483 5.68272 4.2348 5.83275C4.08477 5.98278 4.00049 6.18626 4.00049 6.39844C4.00049 6.61061 4.08477 6.81409 4.2348 6.96412C4.38483 7.11415 4.58832 7.19844 4.80049 7.19844H5.60049V17.5984C5.60176 18.6589 6.02359 19.6756 6.77346 20.4255C7.52333 21.1753 8.54001 21.5972 9.60049 21.5984H14.4005C15.461 21.5972 16.4776 21.1753 17.2275 20.4255C17.9774 19.6756 18.3992 18.6589 18.4005 17.5984V7.19844H19.2005C19.4127 7.19844 19.6161 7.11415 19.7662 6.96412C19.9162 6.81409 20.0005 6.61061 20.0005 6.39844C20.0005 6.18626 19.9162 5.98278 19.7662 5.83275C19.6161 5.68272 19.4127 5.59844 19.2005 5.59844ZM11.2005 3.99844H12.8005C13.2967 3.99904 13.7806 4.15314 14.1858 4.43959C14.591 4.72605 14.8976 5.13083 15.0637 5.59844H8.93729C9.10335 5.13083 9.41001 4.72605 9.8152 4.43959C10.2204 4.15314 10.7043 3.99904 11.2005 3.99844ZM16.8005 17.5984C16.8005 18.235 16.5476 18.8454 16.0975 19.2955C15.6475 19.7456 15.037 19.9984 14.4005 19.9984H9.60049C8.96397 19.9984 8.35352 19.7456 7.90343 19.2955C7.45334 18.8454 7.20049 18.235 7.20049 17.5984V7.19844H16.8005V17.5984Z" fill="#E84958"/>
<path d="M10.4001 16.7984C10.6123 16.7984 10.8158 16.7142 10.9658 16.5641C11.1158 16.4141 11.2001 16.2106 11.2001 15.9984V11.1984C11.2001 10.9863 11.1158 10.7828 10.9658 10.6328C10.8158 10.4827 10.6123 10.3984 10.4001 10.3984C10.1879 10.3984 9.98444 10.4827 9.83441 10.6328C9.68438 10.7828 9.6001 10.9863 9.6001 11.1984V15.9984C9.6001 16.2106 9.68438 16.4141 9.83441 16.5641C9.98444 16.7142 10.1879 16.7984 10.4001 16.7984Z" fill="#E84958"/>
<path d="M13.5997 16.7984C13.8119 16.7984 14.0153 16.7142 14.1654 16.5641C14.3154 16.4141 14.3997 16.2106 14.3997 15.9984V11.1984C14.3997 10.9863 14.3154 10.7828 14.1654 10.6328C14.0153 10.4827 13.8119 10.3984 13.5997 10.3984C13.3875 10.3984 13.184 10.4827 13.034 10.6328C12.884 10.7828 12.7997 10.9863 12.7997 11.1984V15.9984C12.7997 16.2106 12.884 16.4141 13.034 16.5641C13.184 16.7142 13.3875 16.7984 13.5997 16.7984Z" fill="#E84958"/>
</svg>
