<svg width="13" height="14" viewBox="0 0 13 14" fill="none" xmlns="http://www.w3.org/2000/svg">
<path d="M12.5 13.3281H0.5C0.226667 13.3281 0 13.1015 0 12.8281C0 12.5548 0.226667 12.3281 0.5 12.3281H12.5C12.7733 12.3281 13 12.5548 13 12.8281C13 13.1015 12.7733 13.3281 12.5 13.3281Z" fill="white"/>
<path d="M11.1801 0.98254C9.8868 -0.310794 8.62013 -0.344127 7.29346 0.98254L6.4868 1.78921C6.42013 1.85587 6.39346 1.96254 6.42013 2.05587C6.9268 3.82254 8.34013 5.23587 10.1068 5.74256C10.1335 5.74923 10.1601 5.75589 10.1868 5.75589C10.2601 5.75589 10.3268 5.72923 10.3801 5.67589L11.1801 4.86921C11.8401 4.21587 12.1601 3.58254 12.1601 2.94254C12.1668 2.28254 11.8468 1.64254 11.1801 0.98254Z" fill="white"/>
<path d="M8.90682 6.35213C8.71348 6.2588 8.52682 6.16546 8.34682 6.0588C8.20015 5.97213 8.06015 5.8788 7.92015 5.7788C7.80682 5.70546 7.67348 5.5988 7.54682 5.49213C7.53348 5.48546 7.48682 5.44546 7.43348 5.39213C7.21348 5.20545 6.96682 4.96545 6.74682 4.69878C6.72682 4.68545 6.69348 4.63878 6.64682 4.57878C6.58015 4.49878 6.46682 4.36545 6.36682 4.21212C6.28682 4.11212 6.19348 3.96545 6.10682 3.81878C6.00015 3.63878 5.90682 3.45878 5.81349 3.27212C5.79935 3.24186 5.78568 3.21174 5.77242 3.18181C5.67402 2.9596 5.38428 2.89463 5.21242 3.06647L1.39346 6.88546C1.3068 6.97213 1.2268 7.1388 1.2068 7.25213L0.846798 9.80546C0.780131 10.2588 0.906798 10.6855 1.1868 10.9721C1.4268 11.2055 1.76013 11.3321 2.12013 11.3321C2.20013 11.3321 2.28013 11.3255 2.36013 11.3121L4.92013 10.9521C5.04013 10.9321 5.20682 10.8521 5.28682 10.7655L9.10102 6.95126C9.27402 6.7782 9.20875 6.48126 8.98368 6.3852C8.95835 6.3744 8.93275 6.36333 8.90682 6.35213Z" fill="white"/>
</svg>
