<svg width="20" height="20" viewBox="0 0 20 20" fill="none" xmlns="http://www.w3.org/2000/svg">
<g clip-path="url(#clip0_1826_5782)">
<path d="M20 10.2217C20 9.40183 19.9319 8.80354 19.7846 8.18311H10.2041V11.8836H15.8276C15.7143 12.8032 15.1021 14.1881 13.7415 15.1187L13.7224 15.2426L16.7516 17.5358L16.9615 17.5562C18.8889 15.8168 20 13.2574 20 10.2217Z" fill="#4285F4"/>
<path d="M10.2041 19.9715C12.9591 19.9715 15.272 19.0851 16.9614 17.5562L13.7414 15.1186C12.8798 15.7059 11.7233 16.1158 10.2041 16.1158C7.50566 16.1158 5.21542 14.3764 4.39902 11.9722L4.27935 11.9821L1.12957 14.3642L1.08838 14.4761C2.76637 17.7334 6.21309 19.9715 10.2041 19.9715Z" fill="#34A853"/>
<path d="M4.39905 11.9722C4.18363 11.3518 4.05897 10.687 4.05897 10.0001C4.05897 9.31311 4.18363 8.64837 4.38772 8.02794L4.38201 7.8958L1.19276 5.47546L1.08841 5.52397C0.39683 6.87567 0 8.39357 0 10.0001C0 11.6066 0.39683 13.1244 1.08841 14.4761L4.39905 11.9722Z" fill="#FBBC05"/>
<path d="M10.2041 3.88416C12.1201 3.88416 13.4126 4.69295 14.1496 5.36884L17.0294 2.62114C15.2608 1.01463 12.9591 0.0285645 10.2041 0.0285645C6.21309 0.0285645 2.76637 2.26658 1.08838 5.52389L4.38769 8.02786C5.21542 5.62364 7.50566 3.88416 10.2041 3.88416Z" fill="#EB4335"/>
</g>
<defs>
<clipPath id="clip0_1826_5782">
<rect width="20" height="20" rx="10" fill="white"/>
</clipPath>
</defs>
</svg>
