<svg width="20" height="20" viewBox="0 0 20 20" fill="none" xmlns="http://www.w3.org/2000/svg">
<path d="M3.74989 10.9166C3.74978 10.6693 3.82303 10.4275 3.96038 10.2218C4.09772 10.0162 4.29298 9.85585 4.52146 9.7612C4.74994 9.66654 5.00136 9.64179 5.24391 9.69007C5.48646 9.73834 5.70924 9.85749 5.88406 10.0324L9.70489 13.8541C9.7436 13.8929 9.78958 13.9237 9.8402 13.9447C9.89082 13.9657 9.94509 13.9765 9.99989 13.9765C10.0547 13.9765 10.109 13.9657 10.1596 13.9447C10.2102 13.9237 10.2562 13.8929 10.2949 13.8541L14.1157 10.0357C14.3501 9.80125 14.6681 9.66947 14.9996 9.66939C15.3311 9.66931 15.6491 9.80095 15.8836 10.0353C16.1181 10.2697 16.2499 10.5877 16.25 10.9192C16.2501 11.2508 16.1184 11.5688 15.8841 11.8032L12.0624 15.6249C11.5149 16.1709 10.7732 16.4776 9.99989 16.4776C9.22663 16.4776 8.48492 16.1709 7.93739 15.6249L4.11573 11.8032C3.99937 11.6868 3.90716 11.5486 3.84438 11.3964C3.7816 11.2442 3.74949 11.0812 3.74989 10.9166Z" fill="#666666"/>
<path d="M3.74989 5.08455C3.74978 4.83724 3.82303 4.59546 3.96038 4.38979C4.09772 4.18413 4.29298 4.02382 4.52146 3.92917C4.74994 3.83451 5.00136 3.80976 5.24391 3.85803C5.48646 3.90631 5.70924 4.02545 5.88406 4.20038L9.99989 8.31955L14.1157 4.20372C14.3501 3.96922 14.6681 3.83744 14.9996 3.83736C15.3311 3.83728 15.6491 3.96892 15.8836 4.2033C16.1181 4.43769 16.2499 4.75562 16.25 5.08717C16.2501 5.41872 16.1184 5.73672 15.8841 5.97122L10.8841 10.9712C10.768 11.0874 10.6301 11.1795 10.4784 11.2424C10.3267 11.3053 10.1641 11.3376 9.99989 11.3376C9.83567 11.3376 9.67306 11.3053 9.52135 11.2424C9.36965 11.1795 9.23181 11.0874 9.11573 10.9712L4.11573 5.97122C3.99937 5.85479 3.90716 5.71653 3.84438 5.56437C3.7816 5.41221 3.74949 5.24915 3.74989 5.08455Z" fill="#666666" fill-opacity="0.5"/>
</svg>
