<svg width="16" height="14" viewBox="0 0 16 14" fill="none" xmlns="http://www.w3.org/2000/svg">
<path d="M14.2316 5.47455H3.28421L6.8859 1.87287C6.9885 1.7711 7.06994 1.65002 7.12552 1.51661C7.1811 1.38321 7.20972 1.24012 7.20972 1.0956C7.20972 0.951086 7.1811 0.807998 7.12552 0.674594C7.06994 0.54119 6.9885 0.420111 6.8859 0.318341C6.68078 0.114445 6.40332 0 6.11411 0C5.82489 0 5.54743 0.114445 5.34232 0.318341L0.645895 5.02571C0.234725 5.43443 0.00244432 5.98954 0 6.56929C0.00532763 7.14524 0.237388 7.69589 0.645895 8.10192L5.34232 12.8093C5.44439 12.9106 5.56542 12.9909 5.69851 13.0455C5.8316 13.1001 5.97413 13.1279 6.11798 13.1274C6.26182 13.1269 6.40415 13.098 6.53685 13.0425C6.66955 12.987 6.79002 12.9059 6.89137 12.8038C6.99272 12.7017 7.07298 12.5807 7.12755 12.4476C7.18213 12.3145 7.20996 12.172 7.20945 12.0282C7.20894 11.8843 7.18011 11.742 7.12459 11.6093C7.06908 11.4766 6.98797 11.3561 6.8859 11.2548L3.28421 7.66403H14.2316C14.5219 7.66403 14.8004 7.54869 15.0057 7.34338C15.211 7.13808 15.3263 6.85963 15.3263 6.56929C15.3263 6.27895 15.211 6.0005 15.0057 5.79519C14.8004 5.58989 14.5219 5.47455 14.2316 5.47455Z" fill="white"/>
</svg>
