<svg width="22" height="23" viewBox="0 0 22 23" fill="none" xmlns="http://www.w3.org/2000/svg">
<path d="M17.5827 7.38006C19.6177 7.38006 21.2727 5.72509 21.2727 3.69003C21.2727 1.65498 19.6177 9.47028e-07 17.5827 9.47028e-07C15.5476 9.47028e-07 13.8927 1.65498 13.8927 3.69003C13.8927 5.72509 15.5476 7.38006 17.5827 7.38006ZM17.5827 1.84502C18.6002 1.84502 19.4277 2.67251 19.4277 3.69003C19.4277 4.70756 18.6002 5.53505 17.5827 5.53505C16.5652 5.53505 15.7377 4.70756 15.7377 3.69003C15.7377 2.67251 16.5652 1.84502 17.5827 1.84502ZM19.3059 9.50276C19.2485 9.26548 19.1 9.06034 18.8924 8.93173C18.6849 8.80312 18.4351 8.76136 18.1971 8.81549C17.9589 8.8714 17.7527 9.01964 17.6238 9.22759C17.4949 9.43553 17.4539 9.68616 17.5098 9.92434L18.4849 14.0655C18.569 14.3626 18.5824 14.6754 18.5239 14.9786C18.4654 15.2819 18.3368 15.5672 18.1482 15.8118C17.9591 16.0598 17.7151 16.2606 17.4353 16.3982C17.1555 16.5359 16.8475 16.6067 16.5356 16.6051H3.86961C3.25153 16.6051 2.67589 16.3312 2.29028 15.8533C2.10414 15.6263 1.97117 15.3605 1.90109 15.0754C1.83102 14.7903 1.82562 14.4931 1.8853 14.2057L3.81703 7.03136C4.49969 3.97786 7.17681 1.84594 10.3262 1.84594C10.7229 1.84594 11.1187 1.88099 11.5024 1.95111C11.7433 1.99478 11.9917 1.94098 12.1929 1.80153C12.3941 1.66209 12.5316 1.44844 12.5753 1.20756C12.619 0.966692 12.5652 0.718336 12.4258 0.517133C12.2863 0.31593 12.0727 0.17836 11.8318 0.134687C11.3347 0.0448378 10.8305 -0.000238258 10.3253 9.47028e-07C6.30596 9.47028e-07 2.88899 2.72601 2.02552 6.5904L0.093789 13.7638C-0.0334814 14.3275 -0.0311954 14.9126 0.100475 15.4753C0.232145 16.0379 0.489766 16.5633 0.853936 17.012C1.21648 17.4627 1.67577 17.826 2.1978 18.0751C2.71982 18.3243 3.2912 18.4527 3.86961 18.4511H5.68326C6.11223 20.5535 7.97477 22.1411 10.2026 22.1411C12.4305 22.1411 14.293 20.5535 14.722 18.4511H16.5347C17.7524 18.4511 18.8751 17.8976 19.6131 16.9326C19.9737 16.4676 20.2209 15.9248 20.335 15.3475C20.4492 14.7703 20.4272 14.1743 20.2709 13.607L19.3059 9.50368V9.50276ZM10.2026 20.2952C9.63215 20.2934 9.07622 20.115 8.6111 19.7847C8.14599 19.4544 7.7945 18.9882 7.60485 18.4502H12.7995C12.6098 18.9882 12.2583 19.4544 11.7932 19.7847C11.3281 20.115 10.7722 20.2934 10.2017 20.2952H10.2026Z" fill="#C67C4E"/>
</svg>
