<svg width="24" height="24" viewBox="0 0 24 24" fill="none" xmlns="http://www.w3.org/2000/svg">
<path fill-rule="evenodd" clip-rule="evenodd" d="M7.16939 5.59151V5.05639C7.16939 4.77311 7.05685 4.50144 6.85655 4.30113C6.65624 4.10082 6.38456 3.98829 6.10129 3.98829C5.81801 3.98829 5.54633 4.10082 5.34603 4.30113C5.14572 4.50144 5.03319 4.77311 5.03319 5.05639V8.26068C5.03319 8.54396 5.14572 8.81564 5.34603 9.01594C5.54633 9.21625 5.81801 9.32878 6.10129 9.32878H9.30558C9.58886 9.32878 9.86054 9.21625 10.0608 9.01594C10.2612 8.81564 10.3737 8.54396 10.3737 8.26068C10.3737 7.97741 10.2612 7.70573 10.0608 7.50542C9.86054 7.30512 9.58886 7.19259 9.30558 7.19259H8.59957C9.55499 6.51968 10.7197 6.12449 11.9758 6.12449C15.218 6.12449 17.8504 8.75682 17.8504 11.999C17.8504 15.2412 15.218 17.8736 11.9758 17.8736C8.88582 17.8736 6.34962 15.4832 6.11838 12.4519C6.09295 12.1725 5.95861 11.9143 5.74438 11.7331C5.53015 11.552 5.25324 11.4624 4.97349 11.4837C4.69374 11.505 4.43361 11.6356 4.24931 11.8471C4.06502 12.0587 3.97137 12.3342 3.98859 12.6143C4.30368 16.7483 7.76165 20.0098 11.9758 20.0098C16.3972 20.0098 19.9866 16.4204 19.9866 11.999C19.9866 7.57764 16.3972 3.98829 11.9758 3.98829C10.242 3.98589 8.55461 4.54872 7.16939 5.59151Z" fill="#666666"/>
</svg>
