<svg width="16" height="14" viewBox="0 0 16 14" fill="none" xmlns="http://www.w3.org/2000/svg">
<path d="M1.09459 5.47455H12.042L8.44028 1.87287C8.33767 1.7711 8.25623 1.65002 8.20065 1.51661C8.14507 1.38321 8.11646 1.24012 8.11646 1.0956C8.11646 0.951086 8.14507 0.807998 8.20065 0.674594C8.25623 0.54119 8.33767 0.420111 8.44028 0.318341C8.64539 0.114445 8.92285 0 9.21207 0C9.50128 0 9.77874 0.114445 9.98386 0.318341L14.6803 5.02571C15.0914 5.43443 15.3237 5.98954 15.3262 6.56929C15.3208 7.14524 15.0888 7.69589 14.6803 8.10192L9.98386 12.8093C9.88178 12.9106 9.76075 12.9909 9.62766 13.0455C9.49457 13.1001 9.35204 13.1279 9.2082 13.1274C9.06435 13.1269 8.92202 13.098 8.78932 13.0425C8.65662 12.987 8.53616 12.9059 8.4348 12.8038C8.33345 12.7017 8.25319 12.5807 8.19862 12.4476C8.14404 12.3145 8.11621 12.172 8.11672 12.0282C8.11723 11.8843 8.14606 11.742 8.20158 11.6093C8.2571 11.4766 8.3382 11.3561 8.44028 11.2548L12.042 7.66403H1.09459C0.804251 7.66403 0.525798 7.54869 0.320495 7.34338C0.115192 7.13808 -0.000144958 6.85963 -0.000144958 6.56929C-0.000144958 6.27895 0.115192 6.0005 0.320495 5.79519C0.525798 5.58989 0.804251 5.47455 1.09459 5.47455Z" fill="white"/>
</svg>
