<svg width="16" height="16" viewBox="0 0 16 16" fill="none" xmlns="http://www.w3.org/2000/svg">
<path d="M10.1639 6.85821C10.1639 6.73006 10.1129 6.60715 10.0223 6.51653C9.9317 6.42591 9.80879 6.375 9.68063 6.375H4.36527C4.23711 6.375 4.11421 6.42591 4.02359 6.51653C3.93297 6.60715 3.88206 6.73006 3.88206 6.85821C3.88206 6.98637 3.93297 7.10928 4.02359 7.1999C4.11421 7.29052 4.23711 7.34143 4.36527 7.34143H9.68063C9.74409 7.34143 9.80693 7.32893 9.86555 7.30465C9.92418 7.28036 9.97745 7.24477 10.0223 7.1999C10.0672 7.15503 10.1028 7.10176 10.1271 7.04313C10.1514 6.98451 10.1639 6.92167 10.1639 6.85821ZM4.3642 8.81524C4.23604 8.81524 4.11313 8.86615 4.02251 8.95677C3.93189 9.04739 3.88098 9.17029 3.88098 9.29845C3.88098 9.42661 3.93189 9.54952 4.02251 9.64014C4.11313 9.73076 4.23604 9.78167 4.3642 9.78167H7.18241C7.31057 9.78167 7.43348 9.73076 7.5241 9.64014C7.61472 9.54952 7.66563 9.42661 7.66563 9.29845C7.66563 9.17029 7.61472 9.04739 7.5241 8.95677C7.43348 8.86615 7.31057 8.81524 7.18241 8.81524H4.3642Z" fill="#C67C4E"/>
<path d="M13.3476 6.88455C13.2194 6.88455 13.0965 6.93546 13.0059 7.02608C12.9153 7.1167 12.8644 7.23961 12.8644 7.36777V11.2759C12.864 11.6275 12.7241 11.9646 12.4755 12.2132C12.2269 12.4618 11.8898 12.6016 11.5382 12.6021H8.30605C8.20123 12.6019 8.09923 12.6361 8.01558 12.6992L5.22475 14.798C5.20092 14.8171 5.17185 14.8286 5.14138 14.8309C5.11091 14.8332 5.08045 14.8262 5.05401 14.8109C5.02669 14.7978 5.00382 14.777 4.98826 14.7511C4.97269 14.7251 4.96512 14.6951 4.9665 14.6649L5.02019 13.1025C5.02227 13.0377 5.01134 12.9732 4.98804 12.9127C4.96474 12.8523 4.92954 12.7971 4.88453 12.7505C4.83952 12.7039 4.78562 12.6668 4.72601 12.6414C4.6664 12.616 4.6023 12.6028 4.53751 12.6026H2.29271C1.94108 12.6023 1.60393 12.4625 1.35529 12.2139C1.10665 11.9652 0.966837 11.6281 0.966552 11.2764V4.88726C0.966266 4.53501 1.10574 4.19704 1.35437 3.9475C1.60299 3.69797 1.94046 3.55727 2.29271 3.55627H8.24699C8.37515 3.55627 8.49806 3.50536 8.58868 3.41474C8.6793 3.32412 8.73021 3.20122 8.73021 3.07306C8.73021 2.9449 8.6793 2.82199 8.58868 2.73137C8.49806 2.64075 8.37515 2.58984 8.24699 2.58984H2.29271C1.68418 2.59127 1.10107 2.834 0.671278 3.26479C0.241489 3.69559 0.000120409 4.27927 0.00012207 4.8878V11.2764C0.000832258 11.8843 0.242583 12.4671 0.672357 12.8969C1.10213 13.3268 1.68485 13.5687 2.29271 13.5696H4.03712L4.00061 14.6337C3.9932 14.8462 4.04642 15.0565 4.15404 15.2398C4.26166 15.4232 4.41924 15.5722 4.60838 15.6694C4.76941 15.7538 4.94845 15.798 5.13025 15.7983C5.3681 15.7983 5.60381 15.7215 5.80461 15.5717L8.46712 13.5696H11.5377C12.1455 13.5687 12.7283 13.3268 13.158 12.8969C13.5878 12.4671 13.8296 11.8843 13.8303 11.2764V7.3683C13.8304 7.30483 13.818 7.24195 13.7938 7.18326C13.7696 7.12458 13.7341 7.07124 13.6893 7.0263C13.6444 6.98137 13.5912 6.94572 13.5326 6.9214C13.4739 6.89707 13.4111 6.88455 13.3476 6.88455Z" fill="#C67C4E"/>
<path d="M15.9597 2.28332C15.9175 2.15207 15.8424 2.03382 15.7416 1.93983C15.6407 1.84584 15.5175 1.77925 15.3836 1.74642L14.1487 1.43877L13.4744 0.359593C13.1753 -0.120401 12.3946 -0.119327 12.0961 0.359593L11.4218 1.43877L10.1869 1.74642C9.9136 1.81407 9.69776 2.01487 9.61078 2.28332C9.52381 2.55178 9.57964 2.84117 9.76112 3.05754L10.5794 4.03149L10.4902 5.30073C10.4801 5.43828 10.5054 5.57613 10.5637 5.70113C10.622 5.82613 10.7113 5.93413 10.8231 6.01482C10.9345 6.09619 11.0648 6.14774 11.2018 6.16456C11.3387 6.18138 11.4776 6.16292 11.6054 6.11092L12.7855 5.63415L13.9651 6.11092C14.2266 6.21723 14.5186 6.18072 14.7474 6.01536C14.9755 5.84945 15.1001 5.58261 15.0808 5.30073L14.9917 4.03149L15.8099 3.05701C15.9908 2.84117 16.0472 2.55178 15.9597 2.28332ZM14.1256 3.55955C14.0449 3.65572 14.0049 3.77956 14.0139 3.90478L14.0999 5.12356L12.967 4.66558C12.851 4.61842 12.7211 4.61842 12.6051 4.66558L11.4728 5.12356L11.5581 3.90478C11.5666 3.77963 11.5266 3.65602 11.4465 3.55955L10.661 2.62426L11.8465 2.32843C11.9678 2.29811 12.0727 2.22189 12.1391 2.11581L12.7866 1.08012L13.4341 2.11581C13.5007 2.22212 13.6054 2.29836 13.7267 2.32843L14.9122 2.62426L14.1256 3.55955Z" fill="#C67C4E"/>
</svg>
