<svg width="16" height="16" viewBox="0 0 16 16" fill="none" xmlns="http://www.w3.org/2000/svg">
<path d="M15.4996 7.49997H9.16637C8.89038 7.49997 8.66638 7.27598 8.66638 6.99998C8.66638 6.72399 8.89038 6.5 9.16637 6.5H15.4996C15.7755 6.5 15.9995 6.72399 15.9995 6.99998C15.9995 7.27598 15.7755 7.49997 15.4996 7.49997Z" fill="#C67C4E"/>
<path d="M12.9996 9.9997C12.9339 9.99984 12.8689 9.98696 12.8082 9.96179C12.7476 9.93662 12.6925 9.89967 12.6462 9.85308C12.4509 9.65768 12.4509 9.34103 12.6462 9.14572L14.7929 6.99916L12.6462 4.85251C12.4509 4.6572 12.4509 4.34056 12.6462 4.14525C12.8416 3.94982 13.1583 3.94982 13.3536 4.14525L15.8535 6.64517C16.0488 6.84048 16.0488 7.15713 15.8535 7.35243L13.3536 9.85236C13.3073 9.89915 13.2522 9.93627 13.1914 9.96156C13.1306 9.98685 13.0654 9.99982 12.9996 9.9997ZM5.33321 15.9995C5.19053 15.9995 5.05516 15.9795 4.91988 15.9375L0.907941 14.6009C0.36202 14.4102 0 13.9015 0 13.333V1.33333C0 0.598013 0.598013 0 1.33333 0C1.47589 0 1.61129 0.0199994 1.74667 0.0619981L5.75848 1.39865C6.3045 1.5893 6.66642 2.09797 6.66642 2.66654V14.6662C6.66642 15.4015 6.06853 15.9995 5.33321 15.9995ZM1.33333 0.99997C1.15 0.99997 0.99997 1.14997 0.99997 1.33333V13.333C0.99997 13.4749 1.09528 13.6069 1.23128 13.6542L5.22444 14.9849C5.25312 14.9942 5.2905 14.9995 5.33321 14.9995C5.51655 14.9995 5.66645 14.8495 5.66645 14.6662V2.66654C5.66645 2.52458 5.57114 2.39261 5.43515 2.34527L1.44199 1.01463C1.4133 1.00534 1.37593 0.99997 1.33333 0.99997Z" fill="#C67C4E"/>
<path d="M10.1663 5.33321C9.89035 5.33321 9.66636 5.10922 9.66636 4.83323V1.83332C9.66636 1.37396 9.29246 0.99997 8.83313 0.99997H1.33336C1.05737 0.99997 0.833374 0.775976 0.833374 0.499985C0.833374 0.223993 1.05737 0 1.33336 0H8.83313C9.84445 0 10.6663 0.822006 10.6663 1.83332V4.83323C10.6663 5.10922 10.4423 5.33321 10.1663 5.33321ZM8.83313 13.9996H6.16646C5.89047 13.9996 5.66648 13.7756 5.66648 13.4996C5.66648 13.2236 5.89047 12.9996 6.16646 12.9996H8.83313C9.29249 12.9996 9.66636 12.6256 9.66636 12.1663V9.16635C9.66636 8.89036 9.89035 8.66636 10.1663 8.66636C10.4423 8.66636 10.6663 8.89036 10.6663 9.16635V12.1663C10.6663 13.1776 9.84448 13.9996 8.83313 13.9996Z" fill="#C67C4E"/>
</svg>
