<svg width="23" height="22" viewBox="0 0 23 22" fill="none" xmlns="http://www.w3.org/2000/svg">
<path fill-rule="evenodd" clip-rule="evenodd" d="M7.61214 21.1622C7.39958 21.1622 7.2136 20.9895 7.2136 20.7637C7.2136 16.9776 4.15817 13.9089 0.398657 13.9089C-0.132723 13.9089 -0.132723 13.1118 0.398657 13.1118C4.15817 13.1118 7.2136 10.0431 7.2136 6.28357C7.2136 5.76547 8.01067 5.76547 8.01067 6.28357C8.01067 10.0431 11.0794 13.1118 14.8389 13.1118C15.357 13.1118 15.357 13.9089 14.8389 13.9089C11.0794 13.9089 8.01067 16.9776 8.01067 20.7637C8.01067 20.9895 7.83797 21.1622 7.61214 21.1622ZM15.1843 10.4018C14.9717 10.4018 14.7858 10.2291 14.7858 10.0032C14.7858 7.58545 12.8064 5.61934 10.362 5.61934C9.83065 5.61934 9.83065 4.82227 10.362 4.82227C12.8064 4.82227 14.7858 2.84288 14.7858 0.398535C14.7858 -0.132845 15.5828 -0.132845 15.5828 0.398535C15.5828 2.84288 17.5755 4.82227 20.0199 4.82227C20.5379 4.82227 20.5379 5.61934 20.0199 5.61934C17.5357 5.61934 15.5828 7.54559 15.5828 10.0032C15.5828 10.2291 15.4101 10.4018 15.1843 10.4018ZM18.3327 21.6139C18.1069 21.6139 17.9342 21.4279 17.9342 21.2153C17.9342 19.2625 16.3268 17.6684 14.3474 17.6684C13.816 17.6684 13.816 16.8713 14.3474 16.8713C16.3268 16.8713 17.9342 15.2639 17.9342 13.2845C17.9342 12.7531 18.7313 12.7531 18.7313 13.2845C18.7313 15.2639 20.3254 16.8713 22.2782 16.8713C22.7963 16.8713 22.7963 17.6684 22.2782 17.6684C20.3254 17.6684 18.7313 19.2625 18.7313 21.2153C18.7313 21.4279 18.5586 21.6139 18.3327 21.6139Z" fill="white"/>
</svg>
