<svg width="24" height="24" viewBox="0 0 24 24" fill="none" xmlns="http://www.w3.org/2000/svg">
<path d="M21.5 18C21.3906 18.0002 21.2822 17.9787 21.1811 17.9368C21.0801 17.8949 20.9882 17.8335 20.911 17.756L20.221 17.066C19.8327 16.6799 19.5249 16.2207 19.3153 15.7148C19.1057 15.209 18.9985 14.6666 19 14.119V2.5C19 1.121 20.121 0 21.5 0C22.879 0 24 1.121 24 2.5V14.119C24 15.232 23.566 16.279 22.779 17.066L22.089 17.756C22.0118 17.8335 21.9199 17.8949 21.8189 17.9368C21.7178 17.9787 21.6094 18.0002 21.5 18ZM13 0H4C2.93913 0 1.92172 0.421427 1.17157 1.17157C0.421427 1.92172 0 2.93913 0 4L0 21.357C0 22.665 0.941 23.856 2.242 23.987C2.59023 24.0231 2.94216 23.9857 3.27501 23.8772C3.60786 23.7687 3.9142 23.5914 4.1742 23.357C4.4342 23.1225 4.64205 22.8361 4.78431 22.5162C4.92657 22.1963 5.00005 21.8501 5 21.5V21C5 20.2044 5.31607 19.4413 5.87868 18.8787C6.44129 18.3161 7.20435 18 8 18H17V4C17 2.93913 16.5786 1.92172 15.8284 1.17157C15.0783 0.421427 14.0609 0 13 0ZM9.727 11.207L7.548 13.386C7.139 13.795 6.602 13.999 6.065 13.999C5.528 13.999 4.991 13.795 4.582 13.386L3.294 12.097C3.20116 12.0042 3.12751 11.8939 3.07726 11.7726C3.02701 11.6513 3.00115 11.5213 3.00115 11.39C3.00115 11.2587 3.02701 11.1287 3.07726 11.0074C3.12751 10.8861 3.20116 10.7758 3.294 10.683C3.38684 10.5902 3.49707 10.5165 3.61837 10.4663C3.73968 10.416 3.8697 10.3902 4.001 10.3902C4.1323 10.3902 4.26232 10.416 4.38363 10.4663C4.50493 10.5165 4.61516 10.5902 4.708 10.683L5.996 11.972C6.029 12.005 6.101 12.005 6.135 11.972L8.314 9.793C8.40685 9.70016 8.51707 9.62651 8.63837 9.57626C8.75968 9.52601 8.8897 9.50015 9.021 9.50015C9.1523 9.50015 9.28232 9.52601 9.40363 9.57626C9.52493 9.62651 9.63515 9.70016 9.728 9.793C9.82084 9.88585 9.89449 9.99607 9.94474 10.1174C9.99499 10.2387 10.0208 10.3687 10.0208 10.5C10.0208 10.6313 9.99499 10.7613 9.94474 10.8826C9.89449 11.0039 9.81985 11.1142 9.727 11.207ZM9.727 5.207L7.548 7.386C7.139 7.795 6.602 7.999 6.065 7.999C5.528 7.999 4.991 7.795 4.582 7.386L3.294 6.097C3.20116 6.00416 3.12751 5.89393 3.07726 5.77263C3.02701 5.65132 3.00115 5.5213 3.00115 5.39C3.00115 5.2587 3.02701 5.12868 3.07726 5.00737C3.12751 4.88607 3.20116 4.77584 3.294 4.683C3.38684 4.59016 3.49707 4.51651 3.61837 4.46626C3.73968 4.41601 3.8697 4.39015 4.001 4.39015C4.1323 4.39015 4.26232 4.41601 4.38363 4.46626C4.50493 4.51651 4.61516 4.59016 4.708 4.683L5.996 5.972C6.029 6.005 6.101 6.005 6.135 5.972L8.314 3.793C8.40685 3.70016 8.51707 3.62651 8.63837 3.57626C8.75968 3.52601 8.8897 3.50015 9.021 3.50015C9.1523 3.50015 9.28232 3.52601 9.40363 3.57626C9.52493 3.62651 9.63515 3.70016 9.728 3.793C9.82084 3.88584 9.89449 3.99607 9.94474 4.11737C9.99499 4.23868 10.0208 4.3687 10.0208 4.5C10.0208 4.6313 9.99499 4.76132 9.94474 4.88263C9.89449 5.00393 9.81985 5.11416 9.727 5.207ZM17 24H6.24C6.72 23.284 7 22.424 7 21.5V21C7 20.7348 7.10536 20.4804 7.29289 20.2929C7.48043 20.1054 7.73478 20 8 20H19C19.2652 20 19.5196 20.1054 19.7071 20.2929C19.8946 20.4804 20 20.7348 20 21C20 21.7956 19.6839 22.5587 19.1213 23.1213C18.5587 23.6839 17.7956 24 17 24Z" fill="#C67C4E"/>
</svg>
