<svg width="16" height="20" viewBox="0 0 16 20" fill="none" xmlns="http://www.w3.org/2000/svg">
<path d="M12 6.40187H4V5.60187C3.99975 4.71499 4.29426 3.85318 4.83721 3.15193C5.38017 2.45068 6.14078 1.94975 6.99946 1.72792C7.85815 1.50608 8.76621 1.5759 9.58088 1.92642C10.3956 2.27693 11.0706 2.88825 11.5 3.66427C11.551 3.75614 11.6196 3.83707 11.7019 3.90243C11.7842 3.96779 11.8785 4.0163 11.9795 4.0452C12.0806 4.0741 12.1863 4.08281 12.2907 4.07085C12.3951 4.05889 12.4961 4.02647 12.588 3.97547C12.6799 3.92446 12.7608 3.85586 12.8262 3.77358C12.8915 3.6913 12.94 3.59695 12.9689 3.49592C12.9978 3.39489 13.0065 3.28916 12.9946 3.18476C12.9826 3.08036 12.9502 2.97934 12.8992 2.88747C12.2978 1.80132 11.3526 0.945805 10.212 0.4554C9.07147 -0.0350041 7.80029 -0.13249 6.5983 0.178266C5.3963 0.489022 4.33165 1.1904 3.5717 2.17215C2.81175 3.1539 2.39959 4.36035 2.4 5.60187V6.74107C1.68749 7.05203 1.08103 7.56389 0.654799 8.21404C0.228564 8.86419 0.0010227 9.62446 0 10.4019V15.2019C0.00127029 16.2623 0.423106 17.279 1.17298 18.0289C1.92285 18.7788 2.93952 19.2006 4 19.2019H12C13.0605 19.2006 14.0772 18.7788 14.827 18.0289C15.5769 17.279 15.9987 16.2623 16 15.2019V10.4019C15.9987 9.34139 15.5769 8.32472 14.827 7.57485C14.0772 6.82498 13.0605 6.40314 12 6.40187ZM14.4 15.2019C14.4 15.8384 14.1471 16.4488 13.6971 16.8989C13.247 17.349 12.6365 17.6019 12 17.6019H4C3.36348 17.6019 2.75303 17.349 2.30294 16.8989C1.85286 16.4488 1.6 15.8384 1.6 15.2019V10.4019C1.6 9.76535 1.85286 9.1549 2.30294 8.70481C2.75303 8.25473 3.36348 8.00187 4 8.00187H12C12.6365 8.00187 13.247 8.25473 13.6971 8.70481C14.1471 9.1549 14.4 9.76535 14.4 10.4019V15.2019Z" fill="#C67C4E"/>
<path d="M8.00001 11.2031C7.78784 11.2031 7.58436 11.2874 7.43433 11.4374C7.2843 11.5875 7.20001 11.791 7.20001 12.0031V13.6031C7.20001 13.8153 7.2843 14.0188 7.43433 14.1688C7.58436 14.3188 7.78784 14.4031 8.00001 14.4031C8.21219 14.4031 8.41567 14.3188 8.5657 14.1688C8.71573 14.0188 8.80001 13.8153 8.80001 13.6031V12.0031C8.80001 11.791 8.71573 11.5875 8.5657 11.4374C8.41567 11.2874 8.21219 11.2031 8.00001 11.2031Z" fill="#C67C4E"/>
</svg>
