<svg width="16" height="14" viewBox="0 0 16 14" fill="none" xmlns="http://www.w3.org/2000/svg">
<path d="M14.0075 6.958V6.00748C14.0075 4.4142 13.3746 2.88617 12.2479 1.75955C11.1213 0.632929 9.59328 0 8 0C6.40672 0 4.87869 0.632929 3.75207 1.75955C2.62545 2.88617 1.99252 4.4142 1.99252 6.00748V6.958C1.29242 7.26627 0.719468 7.80569 0.36958 8.48594C0.0196916 9.1662 -0.0858943 9.946 0.0704982 10.6948C0.226891 11.4436 0.635769 12.116 1.22868 12.5993C1.8216 13.0827 2.56255 13.3477 3.32752 13.35C3.68158 13.35 4.02114 13.2093 4.2715 12.9589C4.52186 12.7086 4.66251 12.369 4.66251 12.015V8.00997C4.66251 7.65591 4.52186 7.31635 4.2715 7.06599C4.02114 6.81563 3.68158 6.67498 3.32752 6.67498V6.00748C3.32752 4.76826 3.81979 3.5798 4.69605 2.70353C5.57232 1.82727 6.76078 1.335 8 1.335C9.23922 1.335 10.4277 1.82727 11.3039 2.70353C12.1802 3.5798 12.6725 4.76826 12.6725 6.00748V6.67498C12.3184 6.67498 11.9789 6.81563 11.7285 7.06599C11.4781 7.31635 11.3375 7.65591 11.3375 8.00997V12.015H9.335C9.15796 12.015 8.98818 12.0853 8.863 12.2105C8.73782 12.3356 8.6675 12.5054 8.6675 12.6825C8.6675 12.8595 8.73782 13.0293 8.863 13.1545C8.98818 13.2796 9.15796 13.35 9.335 13.35H12.6725C13.4374 13.3477 14.1784 13.0827 14.7713 12.5993C15.3642 12.116 15.7731 11.4436 15.9295 10.6948C16.0859 9.946 15.9803 9.1662 15.6304 8.48594C15.2805 7.80569 14.7076 7.26627 14.0075 6.958ZM3.32752 12.015C2.79642 12.015 2.28708 11.804 1.91154 11.4284C1.536 11.0529 1.32502 10.5436 1.32502 10.0125C1.32502 9.48137 1.536 8.97203 1.91154 8.59649C2.28708 8.22095 2.79642 8.00997 3.32752 8.00997V12.015ZM12.6725 12.015V8.00997C13.2036 8.00997 13.7129 8.22095 14.0885 8.59649C14.464 8.97203 14.675 9.48137 14.675 10.0125C14.675 10.5436 14.464 11.0529 14.0885 11.4284C13.7129 11.804 13.2036 12.015 12.6725 12.015Z" fill="#C67C4E"/>
</svg>
