<svg width="16" height="20" viewBox="0 0 16 20" fill="none" xmlns="http://www.w3.org/2000/svg">
<path d="M7.9584 19.2L7.6752 19.0744C7.36 18.936 0 15.612 0 9.5928V4.3736C0.000280598 3.87134 0.159027 3.38197 0.453632 2.97518C0.748237 2.56839 1.16368 2.26493 1.6408 2.108L8 0L14.3592 2.108C14.8363 2.26493 15.2518 2.56839 15.5464 2.97518C15.841 3.38197 15.9997 3.87134 16 4.3736V9.5928C16 16.4544 8.5696 18.9968 8.2528 19.1024L7.9584 19.2ZM8 1.6776L2.1472 3.6184C1.98796 3.67041 1.84926 3.77148 1.75096 3.90714C1.65267 4.0428 1.59983 4.20608 1.6 4.3736V9.5928C1.6 13.988 6.752 16.8392 8.0376 17.4816C9.3208 16.9656 14.4 14.6032 14.4 9.5928V4.3736C14.4002 4.20608 14.3473 4.0428 14.249 3.90714C14.1507 3.77148 14.012 3.67041 13.8528 3.6184L8 1.6776Z" fill="#C67C4E"/>
<path d="M7.28875 11.6261H7.26235C7.05987 11.623 6.86011 11.5788 6.67517 11.4963C6.49022 11.4138 6.32393 11.2947 6.18635 11.1461L4.34155 9.22606L5.49435 8.12046L7.28955 9.99246L11.4344 5.84766L12.5656 6.97886L8.35675 11.1877C8.21657 11.3277 8.04999 11.4386 7.86667 11.5138C7.68335 11.5891 7.48692 11.6272 7.28875 11.6261Z" fill="#C67C4E"/>
</svg>
