<svg width="14" height="14" viewBox="0 0 14 14" fill="none" xmlns="http://www.w3.org/2000/svg">
<mask id="path-1-inside-1_3533_4250" fill="white">
<path d="M9.95735 5.03566C9.95743 4.8122 9.91329 4.59092 9.82748 4.38459C9.74166 4.17826 9.61587 3.99095 9.45735 3.83344C9.13297 3.52391 8.70182 3.35122 8.25346 3.35122C7.80509 3.35122 7.37395 3.52391 7.04957 3.83344L0.457348 10.4273C0.15647 10.75 -0.0074066 11.1768 0.000257179 11.6179C0.00792096 12.059 0.186526 12.4798 0.498431 12.7918C0.810335 13.1038 1.23118 13.2825 1.67226 13.2903C2.11334 13.298 2.54021 13.1342 2.8629 12.8334L9.45735 6.23955C9.61612 6.08189 9.74206 5.89431 9.82788 5.68767C9.9137 5.48103 9.95771 5.25942 9.95735 5.03566ZM2.07735 12.049C1.96504 12.156 1.81584 12.2158 1.66068 12.2158C1.50553 12.2158 1.35632 12.156 1.24401 12.049C1.13369 11.9384 1.07173 11.7885 1.07173 11.6323C1.07173 11.4761 1.13369 11.3263 1.24401 11.2157L5.56013 6.899L6.39624 7.73511L2.07735 12.049ZM8.6729 5.45344L7.17957 6.94733L6.34624 6.11122L7.84013 4.61789C7.89338 4.55705 7.95856 4.5078 8.03162 4.47318C8.10469 4.43856 8.18408 4.41931 8.26489 4.41663C8.3457 4.41395 8.4262 4.42789 8.5014 4.45758C8.5766 4.48728 8.6449 4.5321 8.70207 4.58928C8.75924 4.64645 8.80406 4.71475 8.83376 4.78995C8.86346 4.86515 8.8774 4.94565 8.87471 5.02645C8.87203 5.10726 8.85279 5.18666 8.81817 5.25972C8.78355 5.33279 8.73429 5.39797 8.67346 5.45122L8.6729 5.45344ZM2.65901 1.58622L3.52013 1.34066L3.76568 0.479553C3.80524 0.341378 3.88871 0.21984 4.00348 0.13332C4.11825 0.0467988 4.25807 0 4.40179 0C4.54552 0 4.68534 0.0467988 4.8001 0.13332C4.91487 0.21984 4.99834 0.341378 5.0379 0.479553L5.28346 1.34066L6.14457 1.58622C6.28275 1.62578 6.40428 1.70925 6.4908 1.82402C6.57732 1.93879 6.62412 2.0786 6.62412 2.22233C6.62412 2.36606 6.57732 2.50588 6.4908 2.62064C6.40428 2.73541 6.28275 2.81888 6.14457 2.85844L5.28346 3.104L5.0379 3.96511C4.99834 4.10328 4.91487 4.22482 4.8001 4.31134C4.68534 4.39786 4.54552 4.44466 4.40179 4.44466C4.25807 4.44466 4.11825 4.39786 4.00348 4.31134C3.88871 4.22482 3.80524 4.10328 3.76568 3.96511L3.52013 3.104L2.65901 2.85844C2.52084 2.81888 2.3993 2.73541 2.31278 2.62064C2.22626 2.50588 2.17946 2.36606 2.17946 2.22233C2.17946 2.0786 2.22626 1.93879 2.31278 1.82402C2.3993 1.70925 2.52084 1.62578 2.65901 1.58622ZM12.8112 9.52511L11.9501 9.77066L11.7046 10.6318C11.665 10.7699 11.5815 10.8915 11.4668 10.978C11.352 11.0645 11.2122 11.1113 11.0685 11.1113C10.9247 11.1113 10.7849 11.0645 10.6701 10.978C10.5554 10.8915 10.4719 10.7699 10.4323 10.6318L10.1868 9.77066L9.32568 9.52511C9.18751 9.48555 9.06597 9.40207 8.97945 9.28731C8.89293 9.17254 8.84613 9.03272 8.84613 8.889C8.84613 8.74527 8.89293 8.60545 8.97945 8.49069C9.06597 8.37592 9.18751 8.29244 9.32568 8.25289L10.1868 8.00733L10.4323 7.14622C10.4719 7.00804 10.5554 6.88651 10.6701 6.79999C10.7849 6.71347 10.9247 6.66667 11.0685 6.66667C11.2122 6.66667 11.352 6.71347 11.4668 6.79999C11.5815 6.88651 11.665 7.00804 11.7046 7.14622L11.9501 8.00733L12.8112 8.25289C12.9494 8.29244 13.0709 8.37592 13.1575 8.49069C13.244 8.60545 13.2908 8.74527 13.2908 8.889C13.2908 9.03272 13.244 9.17254 13.1575 9.28731C13.0709 9.40207 12.9494 9.48555 12.8112 9.52511ZM9.82124 1.389L10.5746 1.174L10.7907 0.419553C10.8259 0.299451 10.899 0.193982 10.9992 0.118949C11.0993 0.0439162 11.2211 0.00336116 11.3462 0.00336116C11.4714 0.00336116 11.5932 0.0439162 11.6933 0.118949C11.7935 0.193982 11.8666 0.299451 11.9018 0.419553L12.1168 1.17289L12.8701 1.38789C12.9902 1.42306 13.0957 1.4962 13.1707 1.59636C13.2458 1.69652 13.2863 1.8183 13.2863 1.94344C13.2863 2.06859 13.2458 2.19036 13.1707 2.29052C13.0957 2.39068 12.9902 2.46382 12.8701 2.499L12.1168 2.714L11.9018 3.469C11.8666 3.5891 11.7935 3.69457 11.6933 3.7696C11.5932 3.84463 11.4714 3.88519 11.3462 3.88519C11.2211 3.88519 11.0993 3.84463 10.9992 3.7696C10.899 3.69457 10.8259 3.5891 10.7907 3.469L10.5757 2.71622L9.82124 2.50011C9.70113 2.46494 9.59567 2.39179 9.52063 2.29163C9.4456 2.19147 9.40505 2.0697 9.40505 1.94455C9.40505 1.81941 9.4456 1.69763 9.52063 1.59747C9.59567 1.49732 9.70113 1.42417 9.82124 1.389Z"/>
</mask>
<path d="M9.95735 5.03566C9.95743 4.8122 9.91329 4.59092 9.82748 4.38459C9.74166 4.17826 9.61587 3.99095 9.45735 3.83344C9.13297 3.52391 8.70182 3.35122 8.25346 3.35122C7.80509 3.35122 7.37395 3.52391 7.04957 3.83344L0.457348 10.4273C0.15647 10.75 -0.0074066 11.1768 0.000257179 11.6179C0.00792096 12.059 0.186526 12.4798 0.498431 12.7918C0.810335 13.1038 1.23118 13.2825 1.67226 13.2903C2.11334 13.298 2.54021 13.1342 2.8629 12.8334L9.45735 6.23955C9.61612 6.08189 9.74206 5.89431 9.82788 5.68767C9.9137 5.48103 9.95771 5.25942 9.95735 5.03566ZM2.07735 12.049C1.96504 12.156 1.81584 12.2158 1.66068 12.2158C1.50553 12.2158 1.35632 12.156 1.24401 12.049C1.13369 11.9384 1.07173 11.7885 1.07173 11.6323C1.07173 11.4761 1.13369 11.3263 1.24401 11.2157L5.56013 6.899L6.39624 7.73511L2.07735 12.049ZM8.6729 5.45344L7.17957 6.94733L6.34624 6.11122L7.84013 4.61789C7.89338 4.55705 7.95856 4.5078 8.03162 4.47318C8.10469 4.43856 8.18408 4.41931 8.26489 4.41663C8.3457 4.41395 8.4262 4.42789 8.5014 4.45758C8.5766 4.48728 8.6449 4.5321 8.70207 4.58928C8.75924 4.64645 8.80406 4.71475 8.83376 4.78995C8.86346 4.86515 8.8774 4.94565 8.87471 5.02645C8.87203 5.10726 8.85279 5.18666 8.81817 5.25972C8.78355 5.33279 8.73429 5.39797 8.67346 5.45122L8.6729 5.45344ZM2.65901 1.58622L3.52013 1.34066L3.76568 0.479553C3.80524 0.341378 3.88871 0.21984 4.00348 0.13332C4.11825 0.0467988 4.25807 0 4.40179 0C4.54552 0 4.68534 0.0467988 4.8001 0.13332C4.91487 0.21984 4.99834 0.341378 5.0379 0.479553L5.28346 1.34066L6.14457 1.58622C6.28275 1.62578 6.40428 1.70925 6.4908 1.82402C6.57732 1.93879 6.62412 2.0786 6.62412 2.22233C6.62412 2.36606 6.57732 2.50588 6.4908 2.62064C6.40428 2.73541 6.28275 2.81888 6.14457 2.85844L5.28346 3.104L5.0379 3.96511C4.99834 4.10328 4.91487 4.22482 4.8001 4.31134C4.68534 4.39786 4.54552 4.44466 4.40179 4.44466C4.25807 4.44466 4.11825 4.39786 4.00348 4.31134C3.88871 4.22482 3.80524 4.10328 3.76568 3.96511L3.52013 3.104L2.65901 2.85844C2.52084 2.81888 2.3993 2.73541 2.31278 2.62064C2.22626 2.50588 2.17946 2.36606 2.17946 2.22233C2.17946 2.0786 2.22626 1.93879 2.31278 1.82402C2.3993 1.70925 2.52084 1.62578 2.65901 1.58622ZM12.8112 9.52511L11.9501 9.77066L11.7046 10.6318C11.665 10.7699 11.5815 10.8915 11.4668 10.978C11.352 11.0645 11.2122 11.1113 11.0685 11.1113C10.9247 11.1113 10.7849 11.0645 10.6701 10.978C10.5554 10.8915 10.4719 10.7699 10.4323 10.6318L10.1868 9.77066L9.32568 9.52511C9.18751 9.48555 9.06597 9.40207 8.97945 9.28731C8.89293 9.17254 8.84613 9.03272 8.84613 8.889C8.84613 8.74527 8.89293 8.60545 8.97945 8.49069C9.06597 8.37592 9.18751 8.29244 9.32568 8.25289L10.1868 8.00733L10.4323 7.14622C10.4719 7.00804 10.5554 6.88651 10.6701 6.79999C10.7849 6.71347 10.9247 6.66667 11.0685 6.66667C11.2122 6.66667 11.352 6.71347 11.4668 6.79999C11.5815 6.88651 11.665 7.00804 11.7046 7.14622L11.9501 8.00733L12.8112 8.25289C12.9494 8.29244 13.0709 8.37592 13.1575 8.49069C13.244 8.60545 13.2908 8.74527 13.2908 8.889C13.2908 9.03272 13.244 9.17254 13.1575 9.28731C13.0709 9.40207 12.9494 9.48555 12.8112 9.52511ZM9.82124 1.389L10.5746 1.174L10.7907 0.419553C10.8259 0.299451 10.899 0.193982 10.9992 0.118949C11.0993 0.0439162 11.2211 0.00336116 11.3462 0.00336116C11.4714 0.00336116 11.5932 0.0439162 11.6933 0.118949C11.7935 0.193982 11.8666 0.299451 11.9018 0.419553L12.1168 1.17289L12.8701 1.38789C12.9902 1.42306 13.0957 1.4962 13.1707 1.59636C13.2458 1.69652 13.2863 1.8183 13.2863 1.94344C13.2863 2.06859 13.2458 2.19036 13.1707 2.29052C13.0957 2.39068 12.9902 2.46382 12.8701 2.499L12.1168 2.714L11.9018 3.469C11.8666 3.5891 11.7935 3.69457 11.6933 3.7696C11.5932 3.84463 11.4714 3.88519 11.3462 3.88519C11.2211 3.88519 11.0993 3.84463 10.9992 3.7696C10.899 3.69457 10.8259 3.5891 10.7907 3.469L10.5757 2.71622L9.82124 2.50011C9.70113 2.46494 9.59567 2.39179 9.52063 2.29163C9.4456 2.19147 9.40505 2.0697 9.40505 1.94455C9.40505 1.81941 9.4456 1.69763 9.52063 1.59747C9.59567 1.49732 9.70113 1.42417 9.82124 1.389Z" fill="#A8643C" stroke="#A8643C" stroke-width="35.5556" mask="url(#path-1-inside-1_3533_4250)"/>
</svg>
