<svg width="16" height="16" viewBox="0 0 16 16" fill="none" xmlns="http://www.w3.org/2000/svg">
<path d="M6.66667 15.3333C6.66667 15.5101 6.59643 15.6797 6.4714 15.8047C6.34638 15.9298 6.17681 16 6 16H3.33333C1.49533 16 0 14.5047 0 12.6667V3.33333C0 1.49533 1.49533 0 3.33333 0H8.66667C10.5047 0 12 1.49533 12 3.33333V4.66667C12 4.84348 11.9298 5.01305 11.8047 5.13807C11.6797 5.2631 11.5101 5.33333 11.3333 5.33333C11.1565 5.33333 10.987 5.2631 10.8619 5.13807C10.7369 5.01305 10.6667 4.84348 10.6667 4.66667V3.33333C10.6667 2.23067 9.76933 1.33333 8.66667 1.33333H3.33333C2.23067 1.33333 1.33333 2.23067 1.33333 3.33333V12.6667C1.33333 13.7693 2.23067 14.6667 3.33333 14.6667H6C6.17681 14.6667 6.34638 14.7369 6.4714 14.8619C6.59643 14.987 6.66667 15.1565 6.66667 15.3333ZM9.33333 4C9.33333 3.82319 9.2631 3.65362 9.13807 3.5286C9.01305 3.40357 8.84348 3.33333 8.66667 3.33333H3.33333C3.15652 3.33333 2.98695 3.40357 2.86193 3.5286C2.7369 3.65362 2.66667 3.82319 2.66667 4C2.66667 4.17681 2.7369 4.34638 2.86193 4.4714C2.98695 4.59643 3.15652 4.66667 3.33333 4.66667H8.66667C8.84348 4.66667 9.01305 4.59643 9.13807 4.4714C9.2631 4.34638 9.33333 4.17681 9.33333 4ZM3.33333 10C3.15652 10 2.98695 10.0702 2.86193 10.1953C2.7369 10.3203 2.66667 10.4899 2.66667 10.6667C2.66667 10.8435 2.7369 11.013 2.86193 11.1381C2.98695 11.2631 3.15652 11.3333 3.33333 11.3333H4.66667C4.84348 11.3333 5.01305 11.2631 5.13807 11.1381C5.2631 11.013 5.33333 10.8435 5.33333 10.6667C5.33333 10.4899 5.2631 10.3203 5.13807 10.1953C5.01305 10.0702 4.84348 10 4.66667 10H3.33333ZM16 11.3333C16 13.9067 13.9067 16 11.3333 16C8.76 16 6.66667 13.9067 6.66667 11.3333C6.66667 8.76 8.76 6.66667 11.3333 6.66667C13.9067 6.66667 16 8.76 16 11.3333ZM14.6667 11.3333C14.6667 9.49533 13.1713 8 11.3333 8C9.49533 8 8 9.49533 8 11.3333C8 13.1713 9.49533 14.6667 11.3333 14.6667C13.1713 14.6667 14.6667 13.1713 14.6667 11.3333ZM11.3333 8.66667C11.202 8.66671 11.0719 8.69263 10.9505 8.74294C10.8292 8.79325 10.7189 8.86697 10.6261 8.95989C10.5332 9.05281 10.4596 9.16311 10.4094 9.2845C10.3591 9.40588 10.3333 9.53597 10.3333 9.66733C10.3334 9.7987 10.3593 9.92877 10.4096 10.0501C10.4599 10.1715 10.5336 10.2817 10.6266 10.3746C10.7195 10.4674 10.8298 10.5411 10.9512 10.5913C11.0725 10.6415 11.2026 10.6674 11.334 10.6673C11.5993 10.6672 11.8537 10.5618 12.0412 10.3741C12.2288 10.1864 12.3341 9.93197 12.334 9.66667C12.3339 9.40136 12.2284 9.14696 12.0408 8.95942C11.8531 8.77189 11.5986 8.66658 11.3333 8.66667ZM11.3333 11.3333C11.1565 11.3333 10.987 11.4036 10.8619 11.5286C10.7369 11.6536 10.6667 11.8232 10.6667 12V13.3333C10.6667 13.5101 10.7369 13.6797 10.8619 13.8047C10.987 13.9298 11.1565 14 11.3333 14C11.5101 14 11.6797 13.9298 11.8047 13.8047C11.9298 13.6797 12 13.5101 12 13.3333V12C12 11.8232 11.9298 11.6536 11.8047 11.5286C11.6797 11.4036 11.5101 11.3333 11.3333 11.3333ZM6.66667 7.33333C6.66667 7.15652 6.59643 6.98695 6.4714 6.86193C6.34638 6.73691 6.17681 6.66667 6 6.66667H3.33333C3.15652 6.66667 2.98695 6.73691 2.86193 6.86193C2.7369 6.98695 2.66667 7.15652 2.66667 7.33333C2.66667 7.51014 2.7369 7.67971 2.86193 7.80474C2.98695 7.92976 3.15652 8 3.33333 8H6C6.17681 8 6.34638 7.92976 6.4714 7.80474C6.59643 7.67971 6.66667 7.51014 6.66667 7.33333Z" fill="#C67C4E"/>
</svg>
