<svg width="11" height="11" viewBox="0 0 11 11" fill="none" xmlns="http://www.w3.org/2000/svg">
<path d="M10.1923 0.578821C9.81681 0.21025 9.31125 0.00446853 8.78512 0.00606539L2.71108 -0.00100517C2.44689 -0.000219057 2.19375 0.105076 2.00694 0.291883C1.82014 0.478691 1.71484 0.731831 1.71406 0.996015C1.71351 1.12803 1.73912 1.25884 1.78939 1.3809C1.83965 1.50297 1.91359 1.61388 2.00694 1.70722C2.10029 1.80057 2.21119 1.87451 2.33326 1.92478C2.45533 1.97505 2.58614 2.00065 2.71815 2.00011L7.36384 1.99304L0.292771 9.0641C0.105234 9.25164 -0.000122086 9.50599 -0.000122191 9.77121C-0.000122296 10.0364 0.105234 10.2908 0.292771 10.4783C0.480307 10.6659 0.734661 10.7712 0.999878 10.7712C1.26509 10.7712 1.51945 10.6659 1.70698 10.4783L8.77805 3.40725L8.77805 8.06001C8.77712 8.32538 8.88163 8.58024 9.06861 8.76855C9.25559 8.95685 9.50971 9.06317 9.77507 9.0641C10.0404 9.06504 10.2953 8.96053 10.4836 8.77355C10.6719 8.58657 10.7782 8.33245 10.7792 8.06708L10.7721 1.99304C10.7737 1.46346 10.5652 0.954867 10.1923 0.578821Z" fill="#C67C4E"/>
<path d="M2.36053 0.64541C2.43051 0.575437 2.51905 0.528066 2.61464 0.508684L2.7127 0.499017L8.78456 0.506612L8.78663 0.505922C9.18113 0.504725 9.5602 0.659138 9.84177 0.935434C10.1185 1.21694 10.2731 1.59632 10.272 1.99126V1.99402L10.2789 8.0652C10.2784 8.19796 10.2253 8.32521 10.1311 8.41875C10.0369 8.51222 9.90956 8.56492 9.77686 8.56445C9.64418 8.56398 9.51683 8.51078 9.42331 8.41668C9.32977 8.32248 9.27782 8.1945 9.27829 8.06174V2.20049L1.35373 10.1251C1.26003 10.2188 1.13268 10.2714 1.00017 10.2715C0.867704 10.2715 0.740359 10.2186 0.64662 10.1251C0.552922 10.0314 0.500305 9.90401 0.500227 9.77151C0.500227 9.6389 0.552852 9.51172 0.64662 9.41795L8.57326 1.49131L7.36275 1.49339L2.71753 1.4996H2.71615L2.61809 1.49131C2.58594 1.48503 2.55463 1.47482 2.52418 1.46231C2.4632 1.4372 2.40717 1.40051 2.36053 1.3539C2.31385 1.30722 2.27725 1.25127 2.25211 1.19024C2.23958 1.15979 2.22941 1.12848 2.22311 1.09633L2.21413 0.997582C2.21452 0.865489 2.26712 0.738813 2.36053 0.64541Z" stroke="url(#paint0_linear_1998_47580)" stroke-opacity="0.12"/>
<defs>
<linearGradient id="paint0_linear_1998_47580" x1="1.00639" y1="1.29244" x2="9.48556" y2="9.77161" gradientUnits="userSpaceOnUse">
<stop stop-color="white"/>
<stop offset="1" stop-color="white" stop-opacity="0"/>
</linearGradient>
</defs>
</svg>
