<svg width="16" height="16" viewBox="0 0 16 16" fill="none" xmlns="http://www.w3.org/2000/svg">
<path d="M12.6667 1.33333H12V0.666667C12 0.489856 11.9298 0.320286 11.8047 0.195262C11.6797 0.0702379 11.5101 0 11.3333 0C11.1565 0 10.987 0.0702379 10.8619 0.195262C10.7369 0.320286 10.6667 0.489856 10.6667 0.666667V1.33333H5.33333V0.666667C5.33333 0.489856 5.2631 0.320286 5.13807 0.195262C5.01305 0.0702379 4.84348 0 4.66667 0C4.48986 0 4.32029 0.0702379 4.19526 0.195262C4.07024 0.320286 4 0.489856 4 0.666667V1.33333H3.33333C1.49533 1.33333 0 2.82867 0 4.66667V12.6667C0 14.5047 1.49533 16 3.33333 16H12.6667C14.5047 16 16 14.5047 16 12.6667V4.66667C16 2.82867 14.5047 1.33333 12.6667 1.33333ZM3.33333 2.66667H12.6667C13.7693 2.66667 14.6667 3.564 14.6667 4.66667V5.33333H1.33333V4.66667C1.33333 3.564 2.23067 2.66667 3.33333 2.66667ZM12.6667 14.6667H3.33333C2.23067 14.6667 1.33333 13.7693 1.33333 12.6667V6.66667H14.6667V12.6667C14.6667 13.7693 13.7693 14.6667 12.6667 14.6667ZM12.6667 9.33333C12.6667 9.51014 12.5964 9.67971 12.4714 9.80474C12.3464 9.92976 12.1768 10 12 10H4C3.82319 10 3.65362 9.92976 3.5286 9.80474C3.40357 9.67971 3.33333 9.51014 3.33333 9.33333C3.33333 9.15652 3.40357 8.98695 3.5286 8.86193C3.65362 8.73691 3.82319 8.66667 4 8.66667H12C12.1768 8.66667 12.3464 8.73691 12.4714 8.86193C12.5964 8.98695 12.6667 9.15652 12.6667 9.33333ZM8 12C8 12.1768 7.92976 12.3464 7.80474 12.4714C7.67971 12.5964 7.51014 12.6667 7.33333 12.6667H4C3.82319 12.6667 3.65362 12.5964 3.5286 12.4714C3.40357 12.3464 3.33333 12.1768 3.33333 12C3.33333 11.8232 3.40357 11.6536 3.5286 11.5286C3.65362 11.4036 3.82319 11.3333 4 11.3333H7.33333C7.51014 11.3333 7.67971 11.4036 7.80474 11.5286C7.92976 11.6536 8 11.8232 8 12Z" fill="#666666"/>
<path d="M0 5.33333V4.66667C0 2.82867 1.49533 1.33333 3.33333 1.33333H4V0.666667C4 0.489856 4.07024 0.320286 4.19526 0.195262C4.32029 0.0702379 4.48986 0 4.66667 0C4.84348 0 5.01305 0.0702379 5.13807 0.195262C5.2631 0.320286 5.33333 0.489856 5.33333 0.666667V1.33333H10.6667V0.666667C10.6667 0.489856 10.7369 0.320286 10.8619 0.195262C10.987 0.0702379 11.1565 0 11.3333 0C11.5101 0 11.6797 0.0702379 11.8047 0.195262C11.9298 0.320286 12 0.489856 12 0.666667V1.33333H12.6667C14.5047 1.33333 16 2.82867 16 4.66667V5.33333H0ZM16 6.66667V12.6667C16 14.5047 14.5047 16 12.6667 16H3.33333C1.49533 16 0 14.5047 0 12.6667V6.66667H16ZM8 12.6667C8 12.4899 7.92976 12.3203 7.80474 12.1953C7.67971 12.0702 7.51014 12 7.33333 12H4C3.82319 12 3.65362 12.0702 3.5286 12.1953C3.40357 12.3203 3.33333 12.4899 3.33333 12.6667C3.33333 12.8435 3.40357 13.013 3.5286 13.1381C3.65362 13.2631 3.82319 13.3333 4 13.3333H7.33333C7.51014 13.3333 7.67971 13.2631 7.80474 13.1381C7.92976 13.013 8 12.8435 8 12.6667ZM12.6667 10C12.6667 9.82319 12.5964 9.65362 12.4714 9.5286C12.3464 9.40357 12.1768 9.33333 12 9.33333H4C3.82319 9.33333 3.65362 9.40357 3.5286 9.5286C3.40357 9.65362 3.33333 9.82319 3.33333 10C3.33333 10.1768 3.40357 10.3464 3.5286 10.4714C3.65362 10.5964 3.82319 10.6667 4 10.6667H12C12.1768 10.6667 12.3464 10.5964 12.4714 10.4714C12.5964 10.3464 12.6667 10.1768 12.6667 10Z" fill="#666666"/>
</svg>
