<svg width="16" height="16" viewBox="0 0 16 16" fill="none" xmlns="http://www.w3.org/2000/svg">
<path d="M6 6H1.33333C0.598 6 0 5.402 0 4.66667V3.33333C0 1.49533 1.49533 0 3.33333 0H6C6.73533 0 7.33333 0.598 7.33333 1.33333V4.66667C7.33333 5.402 6.73533 6 6 6ZM12.6667 16H10C9.26467 16 8.66667 15.402 8.66667 14.6667V11.3333C8.66667 10.598 9.26467 10 10 10H14.6667C15.402 10 16 10.598 16 11.3333V12.6667C16 14.5047 14.5047 16 12.6667 16ZM14.6667 8.66667H10C9.26467 8.66667 8.66667 8.06867 8.66667 7.33333V1.33333C8.66667 0.598 9.26467 0 10 0H12.6667C14.5047 0 16 1.49533 16 3.33333V7.33333C16 8.06867 15.402 8.66667 14.6667 8.66667ZM6 16H3.33333C1.49533 16 0 14.5047 0 12.6667V8.66667C0 7.93133 0.598 7.33333 1.33333 7.33333H6C6.73533 7.33333 7.33333 7.93133 7.33333 8.66667V14.6667C7.33333 15.402 6.73533 16 6 16Z" fill="#666666"/>
</svg>
