<svg width="18" height="18" viewBox="0 0 18 18" fill="none" xmlns="http://www.w3.org/2000/svg">
<path d="M6.5 0H3.61111C1.61994 0 0 1.61994 0 3.61111V5.05556C0 5.85217 0.647833 6.5 1.44444 6.5H6.5C7.29661 6.5 7.94445 5.85217 7.94445 5.05556V1.44444C7.94445 0.647833 7.29661 0 6.5 0ZM1.44444 5.05556V3.61111C1.44444 2.41656 2.41656 1.44444 3.61111 1.44444H6.5L6.50144 5.05556H1.44444ZM15.8889 10.8333H10.8333C10.0367 10.8333 9.38889 11.4812 9.38889 12.2778V15.8889C9.38889 16.6855 10.0367 17.3333 10.8333 17.3333H13.7222C15.7134 17.3333 17.3333 15.7134 17.3333 13.7222V12.2778C17.3333 11.4812 16.6855 10.8333 15.8889 10.8333ZM15.8889 13.7222C15.8889 14.9168 14.9168 15.8889 13.7222 15.8889H10.8333V12.2778H15.8889V13.7222ZM13.7222 0H10.8333C10.0367 0 9.38889 0.647833 9.38889 1.44444V7.94445C9.38889 8.74106 10.0367 9.38889 10.8333 9.38889H15.8889C16.6855 9.38889 17.3333 8.74106 17.3333 7.94445V3.61111C17.3333 1.61994 15.7134 0 13.7222 0ZM10.8333 7.94445V1.44444H13.7222C14.9168 1.44444 15.8889 2.41656 15.8889 3.61111L15.8903 7.94445H10.8333ZM6.5 7.94445H1.44444C0.647833 7.94445 0 8.59228 0 9.38889V13.7222C0 15.7134 1.61994 17.3333 3.61111 17.3333H6.5C7.29661 17.3333 7.94445 16.6855 7.94445 15.8889V9.38889C7.94445 8.59228 7.29661 7.94445 6.5 7.94445ZM3.61111 15.8889C2.41656 15.8889 1.44444 14.9168 1.44444 13.7222V9.38889H6.5L6.50144 15.8889H3.61111Z" fill="#666666"/>
</svg>
