<svg width="16" height="15" viewBox="0 0 16 15" fill="none" xmlns="http://www.w3.org/2000/svg">
<path d="M15.6608 6.67684C15.5031 6.46296 15.2972 6.28932 15.0597 6.17001C14.8223 6.05071 14.56 5.98911 14.2943 5.99022H13.999V4.66565C13.999 2.82779 12.5037 1.33257 10.6659 1.33257H7.29546C7.1928 1.33257 7.08881 1.3079 6.99748 1.26257L4.8943 0.210651C4.61637 0.0722807 4.31017 0.000178773 3.9997 0H2.66647C1.95955 0.000529435 1.28174 0.281539 0.781811 0.78134C0.281885 1.28114 0.000706186 1.95889 0 2.6658L0 11.3318C0 13.1697 1.49522 14.6649 3.33309 14.6649H11.7045C13.1884 14.6649 14.4709 13.7103 14.9056 12.2604L15.9268 8.18339C16.0042 7.9291 16.0205 7.66014 15.9744 7.39837C15.9283 7.1366 15.8204 6.88939 15.6608 6.67684ZM1.33323 11.3318V2.6658C1.33323 1.93052 1.93119 1.33257 2.66647 1.33257H3.9997C4.10236 1.33257 4.20635 1.35723 4.29768 1.40256L6.40086 2.45448C6.67684 2.59247 6.98615 2.66513 7.29546 2.66513H10.6659C11.7685 2.66513 12.6657 3.5624 12.6657 4.66499V5.98955H5.74291C5.18551 5.99114 4.64251 6.16671 4.18971 6.49177C3.7369 6.81682 3.39688 7.27514 3.21709 7.80275L1.7572 12.5611C1.48216 12.2101 1.33287 11.7777 1.33323 11.3318ZM14.6416 7.83008L13.6203 11.9064C13.4984 12.3195 13.2457 12.6817 12.9002 12.9388C12.5547 13.1958 12.1351 13.3337 11.7045 13.3317H3.33309C3.19443 13.3317 3.05911 13.3177 2.92845 13.2903L4.48433 8.21805C4.57548 7.95673 4.74566 7.73022 4.97128 7.56993C5.19691 7.40964 5.46681 7.32351 5.74357 7.32345H14.2949C14.4563 7.32345 14.5503 7.41678 14.5916 7.47278C14.6329 7.52877 14.6956 7.64543 14.6416 7.83008Z" fill="#666666"/>
</svg>
