<svg width="16" height="20" viewBox="0 0 16 20" fill="none" xmlns="http://www.w3.org/2000/svg">
<path d="M12 0H4C1.7944 0 0 1.7944 0 4V15.2C0 17.4056 1.7944 19.2 4 19.2H12C14.2056 19.2 16 17.4056 16 15.2V4C16 1.7944 14.2056 0 12 0ZM4 1.6H12C13.3232 1.6 14.4 2.6768 14.4 4H1.6C1.6 2.6768 2.6768 1.6 4 1.6ZM12 17.6H4C2.6768 17.6 1.6 16.5232 1.6 15.2V5.6H14.4V15.2C14.4 16.5232 13.3232 17.6 12 17.6ZM12 8.8C12 9.01217 11.9157 9.21566 11.7657 9.36569C11.6157 9.51571 11.4122 9.6 11.2 9.6H4.8C4.58783 9.6 4.38434 9.51571 4.23431 9.36569C4.08429 9.21566 4 9.01217 4 8.8C4 8.58783 4.08429 8.38434 4.23431 8.23431C4.38434 8.08429 4.58783 8 4.8 8H11.2C11.4122 8 11.6157 8.08429 11.7657 8.23431C11.9157 8.38434 12 8.58783 12 8.8ZM8.8 12C8.8 12.2122 8.71571 12.4157 8.56569 12.5657C8.41566 12.7157 8.21217 12.8 8 12.8H4.8C4.58783 12.8 4.38434 12.7157 4.23431 12.5657C4.08429 12.4157 4 12.2122 4 12C4 11.7878 4.08429 11.5843 4.23431 11.4343C4.38434 11.2843 4.58783 11.2 4.8 11.2H8C8.21217 11.2 8.41566 11.2843 8.56569 11.4343C8.71571 11.5843 8.8 11.7878 8.8 12Z" fill="#666666"/>
</svg>
