<svg width="16" height="17" viewBox="0 0 16 17" fill="none" xmlns="http://www.w3.org/2000/svg">
<path d="M13.2246 5.55082C14.7552 5.55082 16 4.30605 16 2.77541C16 1.24477 14.7552 7.12294e-07 13.2246 7.12294e-07C11.694 7.12294e-07 10.4492 1.24477 10.4492 2.77541C10.4492 4.30605 11.694 5.55082 13.2246 5.55082ZM13.2246 1.38771C13.9899 1.38771 14.6123 2.01009 14.6123 2.77541C14.6123 3.54073 13.9899 4.16311 13.2246 4.16311C12.4593 4.16311 11.8369 3.54073 11.8369 2.77541C11.8369 2.01009 12.4593 1.38771 13.2246 1.38771ZM14.5207 7.14737C14.4775 6.9689 14.3658 6.81462 14.2097 6.71788C14.0536 6.62115 13.8657 6.58974 13.6867 6.63045C13.5076 6.67251 13.3525 6.784 13.2555 6.94041C13.1586 7.09681 13.1277 7.28532 13.1698 7.46446L13.9032 10.5792C13.9664 10.8027 13.9765 11.0379 13.9325 11.266C13.8885 11.4941 13.7918 11.7087 13.6499 11.8926C13.5077 12.0792 13.3242 12.2302 13.1137 12.3337C12.9032 12.4373 12.6716 12.4905 12.4371 12.4893H2.91048C2.4456 12.4893 2.01263 12.2833 1.7226 11.9239C1.5826 11.7531 1.48259 11.5532 1.42988 11.3388C1.37717 11.1243 1.37312 10.9008 1.418 10.6846L2.87093 5.28854C3.38438 2.99189 5.39794 1.3884 7.76675 1.3884C8.06511 1.3884 8.36277 1.41477 8.65141 1.4675C8.83258 1.50035 9.01938 1.45988 9.17071 1.355C9.32204 1.25012 9.42551 1.08942 9.45836 0.908253C9.49121 0.727085 9.45074 0.540287 9.34586 0.388955C9.24098 0.237622 9.08029 0.134151 8.89912 0.101303C8.52522 0.0337241 8.14601 -0.000179203 7.76606 7.12294e-07C4.74294 7.12294e-07 2.17291 2.05033 1.52347 4.95688L0.0705421 10.3523C-0.0251826 10.7762 -0.0234632 11.2163 0.0755707 11.6395C0.174605 12.0627 0.368371 12.4579 0.642276 12.7953C0.914961 13.1343 1.26041 13.4076 1.65304 13.595C2.04568 13.7823 2.47543 13.879 2.91048 13.8777H4.27459C4.59723 15.459 5.99812 16.6531 7.67377 16.6531C9.34943 16.6531 10.7503 15.459 11.073 13.8777H12.4364C13.3523 13.8777 14.1967 13.4614 14.7518 12.7357C15.0229 12.3859 15.2089 11.9777 15.2947 11.5435C15.3806 11.1093 15.3641 10.661 15.2465 10.2343L14.5207 7.14807V7.14737ZM7.67377 15.2647C7.2447 15.2634 6.82656 15.1293 6.47673 14.8808C6.1269 14.6323 5.86253 14.2817 5.71989 13.877H9.62697C9.48432 14.2817 9.21995 14.6323 8.87012 14.8808C8.5203 15.1293 8.10216 15.2634 7.67308 15.2647H7.67377Z" fill="#666666"/>
</svg>
