<svg width="16" height="16" viewBox="0 0 16 16" fill="none" xmlns="http://www.w3.org/2000/svg">
<path d="M11 12H10.6667V3C10.6667 1.346 9.32066 0 7.66666 0H3C2.20462 0.000882284 1.44207 0.317236 0.879654 0.879654C0.317236 1.44207 0.000882284 2.20462 0 3L0 13.6667C0.000529012 14.2851 0.246348 14.8781 0.68353 15.3155C1.12071 15.7529 1.71355 15.9991 2.332 16H10.6667C11.7693 16 12.6667 15.1027 12.6667 14V13.6667C12.6667 12.7473 11.9193 12 11 12ZM3.33333 13.6667C3.33333 14.218 2.88466 14.6667 2.33333 14.6667C1.782 14.6667 1.33333 14.218 1.33333 13.6667V3C1.33333 2.08067 2.08067 1.33333 3 1.33333H7.66666C8.58599 1.33333 9.33333 2.08067 9.33333 3V12H5C4.55808 12.0003 4.13436 12.1761 3.82188 12.4885C3.50939 12.801 3.33368 13.2247 3.33333 13.6667ZM11.3333 14C11.3333 14.1768 11.2631 14.3464 11.1381 14.4714C11.013 14.5964 10.8435 14.6667 10.6667 14.6667H4.44133C4.586 14.3633 4.66666 14.024 4.66666 13.6667C4.66666 13.4833 4.81666 13.3333 5 13.3333H11C11.1833 13.3333 11.3333 13.4833 11.3333 13.6667V14ZM14 0C12.8973 0 12 0.897333 12 2V8.89533C12 9.78599 12.3473 10.6233 12.9767 11.2527L13.5287 11.8047C13.5904 11.8668 13.6639 11.9161 13.7448 11.9497C13.8256 11.9834 13.9124 12.0007 14 12.0007C14.0876 12.0007 14.1743 11.9834 14.2552 11.9497C14.3361 11.9161 14.4096 11.8668 14.4713 11.8047L15.0233 11.2527C15.3339 10.9438 15.5801 10.5764 15.7477 10.1718C15.9154 9.76717 16.0011 9.33331 16 8.89533V2C16 0.897333 15.1027 0 14 0ZM14.6667 8.89533C14.6667 9.42999 14.458 9.93266 14.0807 10.31L14 10.3907L13.9193 10.31C13.733 10.1246 13.5853 9.90414 13.4847 9.66132C13.3841 9.4185 13.3327 9.15815 13.3333 8.89533V2C13.3333 1.82319 13.4036 1.65362 13.5286 1.52859C13.6536 1.40357 13.8232 1.33333 14 1.33333C14.1768 1.33333 14.3464 1.40357 14.4714 1.52859C14.5964 1.65362 14.6667 1.82319 14.6667 2V8.89533ZM2.19533 4.73133C2.07033 4.60632 2.0001 4.43678 2.0001 4.26C2.0001 4.17246 2.01734 4.08578 2.05084 4.00491C2.08434 3.92404 2.13344 3.85056 2.19533 3.78866C2.25723 3.72677 2.33071 3.67767 2.41158 3.64417C2.49245 3.61067 2.57913 3.59343 2.66666 3.59343C2.84345 3.59343 3.01299 3.66366 3.138 3.78866L3.99666 4.648C4.01866 4.67 4.06666 4.67 4.08933 4.648L5.542 3.19533C5.667 3.07033 5.83655 3.0001 6.01333 3.0001C6.19011 3.0001 6.35966 3.07033 6.48466 3.19533C6.60967 3.32034 6.67989 3.48988 6.67989 3.66666C6.67989 3.84345 6.60967 4.01299 6.48466 4.138L5.032 5.59066C4.75933 5.86333 4.40133 5.99933 4.04333 5.99933C3.68533 5.99933 3.32733 5.86333 3.05466 5.59066L2.19533 4.73133ZM5.032 9.59066C4.75933 9.86333 4.40133 9.99933 4.04333 9.99933C3.68533 9.99933 3.32733 9.86333 3.05466 9.59066L2.196 8.73133C2.07099 8.60632 2.00077 8.43678 2.00077 8.25999C2.00077 8.08321 2.07099 7.91367 2.196 7.78866C2.321 7.66366 2.49055 7.59343 2.66733 7.59343C2.84412 7.59343 3.01366 7.66366 3.13866 7.78866L3.99733 8.64799C4.01933 8.66999 4.06733 8.66999 4.09 8.64799L5.54266 7.19533C5.60456 7.13343 5.67804 7.08433 5.75891 7.05084C5.83978 7.01734 5.92646 7.0001 6.014 7.0001C6.10153 7.0001 6.18821 7.01734 6.26908 7.05084C6.34995 7.08433 6.42343 7.13343 6.48533 7.19533C6.54722 7.25723 6.59632 7.33071 6.62982 7.41158C6.66332 7.49245 6.68056 7.57913 6.68056 7.66666C6.68056 7.7542 6.66332 7.84087 6.62982 7.92174C6.59632 8.00262 6.54722 8.0761 6.48533 8.13799L5.032 9.59066Z" fill="#666666"/>
</svg>
