<svg width="16" height="20" viewBox="0 0 16 20" fill="none" xmlns="http://www.w3.org/2000/svg">
<path d="M15.2 3.2H12.72C12.5343 2.29713 12.0431 1.48588 11.329 0.902974C10.6149 0.320072 9.72176 0.00116362 8.8 0L7.2 0C6.27824 0.00116362 5.38506 0.320072 4.671 0.902974C3.95694 1.48588 3.46568 2.29713 3.28 3.2H0.8C0.587827 3.2 0.384344 3.28429 0.234315 3.43431C0.0842854 3.58434 0 3.78783 0 4C0 4.21217 0.0842854 4.41566 0.234315 4.56568C0.384344 4.71571 0.587827 4.8 0.8 4.8H1.6V15.2C1.60127 16.2605 2.02311 17.2772 2.77298 18.027C3.52285 18.7769 4.53952 19.1987 5.6 19.2H10.4C11.4605 19.1987 12.4772 18.7769 13.227 18.027C13.9769 17.2772 14.3987 16.2605 14.4 15.2V4.8H15.2C15.4122 4.8 15.6157 4.71571 15.7657 4.56568C15.9157 4.41566 16 4.21217 16 4C16 3.78783 15.9157 3.58434 15.7657 3.43431C15.6157 3.28429 15.4122 3.2 15.2 3.2ZM7.2 1.6H8.8C9.29622 1.60061 9.7801 1.7547 10.1853 2.04115C10.5905 2.32761 10.8971 2.73239 11.0632 3.2H4.9368C5.10287 2.73239 5.40952 2.32761 5.81471 2.04115C6.2199 1.7547 6.70378 1.60061 7.2 1.6ZM12.8 15.2C12.8 15.8365 12.5471 16.447 12.0971 16.8971C11.647 17.3471 11.0365 17.6 10.4 17.6H5.6C4.96348 17.6 4.35303 17.3471 3.90294 16.8971C3.45286 16.447 3.2 15.8365 3.2 15.2V4.8H12.8V15.2Z" fill="#666666"/>
<path d="M6.39961 14.4C6.61178 14.4 6.81527 14.3157 6.96529 14.1657C7.11532 14.0157 7.19961 13.8122 7.19961 13.6V8.8C7.19961 8.58783 7.11532 8.38434 6.96529 8.23431C6.81527 8.08429 6.61178 8 6.39961 8C6.18744 8 5.98395 8.08429 5.83392 8.23431C5.68389 8.38434 5.59961 8.58783 5.59961 8.8V13.6C5.59961 13.8122 5.68389 14.0157 5.83392 14.1657C5.98395 14.3157 6.18744 14.4 6.39961 14.4Z" fill="#666666"/>
<path d="M9.59932 14.4C9.81149 14.4 10.015 14.3157 10.165 14.1657C10.315 14.0157 10.3993 13.8122 10.3993 13.6V8.8C10.3993 8.58783 10.315 8.38434 10.165 8.23431C10.015 8.08429 9.81149 8 9.59932 8C9.38714 8 9.18366 8.08429 9.03363 8.23431C8.8836 8.38434 8.79932 8.58783 8.79932 8.8V13.6C8.79932 13.8122 8.8836 14.0157 9.03363 14.1657C9.18366 14.3157 9.38714 14.4 9.59932 14.4Z" fill="#666666"/>
</svg>
